<mxfile host="app.diagrams.net" modified="2021-05-25T04:36:37.519Z" agent="5.0 (Windows NT 10.0; Win64; x64) AppleWebKit/537.36 (KHTML, like Gecko) Chrome/90.0.4430.212 Safari/537.36" etag="4pgdm1Aj61lS510sErE5" version="14.7.0" type="github">
  <diagram id="VOlqChU_hi59j2tzRkMc" name="Page-1">
    <mxGraphModel dx="2374" dy="1961" grid="1" gridSize="10" guides="1" tooltips="1" connect="1" arrows="1" fold="1" page="1" pageScale="1" pageWidth="1169" pageHeight="827" math="0" shadow="0">
      <root>
        <mxCell id="0" />
        <mxCell id="1" parent="0" />
        <mxCell id="zdbvWglI64EdZgL94FB6-8" value="&lt;div style=&quot;text-align: left&quot;&gt;&lt;span style=&quot;font-size: 14px&quot;&gt;ls | grep&amp;nbsp;&amp;nbsp;&lt;/span&gt;&lt;/div&gt;&lt;div style=&quot;text-align: left&quot;&gt;&lt;span style=&quot;font-size: 14px&quot;&gt;ls &amp;gt; 1.txt&lt;/span&gt;&lt;/div&gt;&lt;div style=&quot;text-align: left&quot;&gt;&lt;span style=&quot;font-size: 14px&quot;&gt;ls &amp;gt;&amp;gt; 1.txt&lt;/span&gt;&lt;/div&gt;&lt;div style=&quot;text-align: left&quot;&gt;&lt;span style=&quot;font-size: 14px&quot;&gt;{ ls ; ls ; } &amp;gt; 1.txt&lt;/span&gt;&lt;/div&gt;&lt;div style=&quot;text-align: left&quot;&gt;&lt;span style=&quot;font-size: 14px&quot;&gt;&lt;br&gt;&lt;/span&gt;&lt;/div&gt;&lt;div style=&quot;text-align: left&quot;&gt;&lt;span style=&quot;font-size: 14px&quot;&gt;sleep &amp;amp;&lt;/span&gt;&lt;/div&gt;&lt;div style=&quot;text-align: left&quot;&gt;&lt;br&gt;&lt;/div&gt;" style="rounded=1;whiteSpace=wrap;html=1;" vertex="1" parent="1">
          <mxGeometry x="90" y="199" width="400" height="430" as="geometry" />
        </mxCell>
        <mxCell id="zdbvWglI64EdZgL94FB6-9" value="&lt;div style=&quot;text-align: left&quot;&gt;&lt;span style=&quot;font-size: medium&quot;&gt;&amp;nbsp;&lt;/span&gt;&lt;br&gt;&lt;/div&gt;&lt;div style=&quot;text-align: left&quot;&gt;&lt;font size=&quot;3&quot;&gt;ls /proc/cpuinfo&amp;nbsp; vmstat&amp;nbsp;&amp;nbsp;&lt;/font&gt;&lt;/div&gt;&lt;div style=&quot;text-align: left&quot;&gt;&lt;font size=&quot;3&quot;&gt;&lt;br&gt;&lt;/font&gt;&lt;/div&gt;&lt;div style=&quot;text-align: left&quot;&gt;&lt;font size=&quot;3&quot;&gt;ls /dev/cpu&lt;/font&gt;&lt;/div&gt;&lt;div style=&quot;text-align: left&quot;&gt;&lt;font size=&quot;3&quot;&gt;&lt;br&gt;&lt;/font&gt;&lt;/div&gt;&lt;div style=&quot;text-align: left&quot;&gt;&lt;font size=&quot;3&quot;&gt;/usr&amp;nbsp; user&lt;/font&gt;&lt;/div&gt;&lt;div style=&quot;text-align: left&quot;&gt;&lt;font size=&quot;3&quot;&gt;/sys&amp;nbsp; system&lt;/font&gt;&lt;/div&gt;&lt;div style=&quot;text-align: left&quot;&gt;&lt;font size=&quot;3&quot;&gt;/var&amp;nbsp; variable&lt;/font&gt;&lt;/div&gt;&lt;div style=&quot;text-align: left&quot;&gt;&lt;font size=&quot;3&quot;&gt;/opt optional&lt;/font&gt;&lt;/div&gt;&lt;div style=&quot;text-align: left&quot;&gt;&lt;font size=&quot;3&quot;&gt;/mnt mount&lt;/font&gt;&lt;/div&gt;&lt;div style=&quot;text-align: left&quot;&gt;&lt;font size=&quot;3&quot;&gt;/lib/lib64&amp;nbsp;&lt;/font&gt;&lt;/div&gt;&lt;div style=&quot;text-align: left&quot;&gt;&lt;font size=&quot;3&quot;&gt;/home&lt;/font&gt;&lt;/div&gt;&lt;div style=&quot;text-align: left&quot;&gt;&lt;font size=&quot;3&quot;&gt;&lt;br&gt;&lt;/font&gt;&lt;/div&gt;&lt;div style=&quot;text-align: left&quot;&gt;&lt;br&gt;&lt;/div&gt;&lt;div&gt;&lt;br&gt;&lt;/div&gt;" style="rounded=1;whiteSpace=wrap;html=1;" vertex="1" parent="1">
          <mxGeometry x="80" y="-590" width="400" height="430" as="geometry" />
        </mxCell>
        <mxCell id="zdbvWglI64EdZgL94FB6-10" value="&lt;div&gt;&lt;br&gt;&lt;/div&gt;&lt;div&gt;&lt;font size=&quot;3&quot;&gt;vim&amp;nbsp;&lt;/font&gt;&lt;/div&gt;&lt;div&gt;&lt;font size=&quot;3&quot;&gt;set backupcopy=yes&amp;nbsp;&lt;/font&gt;&lt;/div&gt;&lt;div&gt;&lt;div&gt;syntax on&lt;/div&gt;&lt;div&gt;set tabstop=2&lt;/div&gt;&lt;div&gt;set expandtab&lt;/div&gt;&lt;div&gt;set shiftwidth=4&lt;/div&gt;&lt;div&gt;set paste&lt;br&gt;&lt;/div&gt;&lt;div&gt;set sm&lt;/div&gt;&lt;div&gt;set hls&lt;/div&gt;&lt;div&gt;set noautoindent&lt;/div&gt;&lt;div&gt;&lt;span&gt;set number&amp;nbsp; &amp;nbsp; &amp;nbsp; &amp;nbsp; &amp;nbsp; &amp;nbsp; &amp;nbsp; &quot; show Line Numbers on start&lt;/span&gt;&lt;br&gt;&lt;/div&gt;&lt;div&gt;&lt;span&gt;set ffs=unix,dos&lt;/span&gt;&lt;br&gt;&lt;/div&gt;&lt;div&gt;set encoding=utf-8&lt;/div&gt;&lt;div&gt;&lt;br&gt;&lt;/div&gt;&lt;div&gt;&lt;br&gt;&lt;/div&gt;&lt;/div&gt;" style="rounded=1;whiteSpace=wrap;html=1;align=left;" vertex="1" parent="1">
          <mxGeometry x="710" y="-590" width="400" height="430" as="geometry" />
        </mxCell>
        <mxCell id="zdbvWglI64EdZgL94FB6-11" value="&lt;div style=&quot;text-align: left&quot;&gt;&lt;font style=&quot;font-size: 14px&quot;&gt;echo &#39;xx&lt;/font&gt;&lt;/div&gt;&lt;div style=&quot;text-align: left&quot;&gt;&lt;font size=&quot;3&quot;&gt;asdf&lt;/font&gt;&lt;/div&gt;&lt;div style=&quot;text-align: left&quot;&gt;&lt;font size=&quot;3&quot;&gt;adfdas&lt;/font&gt;&lt;/div&gt;&lt;div style=&quot;text-align: left&quot;&gt;&lt;font size=&quot;3&quot;&gt;df&#39; | sed &#39;:a;N;$!ba;s/\n/,/g&#39;&lt;/font&gt;&lt;/div&gt;&lt;div style=&quot;text-align: left&quot;&gt;&lt;font size=&quot;3&quot;&gt;&amp;nbsp;&lt;/font&gt;&lt;/div&gt;&lt;div style=&quot;text-align: left&quot;&gt;&lt;font size=&quot;3&quot;&gt;find . -name &#39;*.sh&#39;| xargs -I xx&amp;nbsp; mv xx xx_bak&lt;/font&gt;&lt;/div&gt;&lt;div style=&quot;text-align: left&quot;&gt;&lt;font size=&quot;3&quot;&gt;find . -name &#39;*.sh&#39;| xargs -l grep -il find_txt&lt;/font&gt;&lt;/div&gt;&lt;div style=&quot;text-align: left&quot;&gt;&lt;font size=&quot;3&quot;&gt;&amp;nbsp;&lt;/font&gt;&lt;/div&gt;&lt;div style=&quot;text-align: left&quot;&gt;&lt;br&gt;&lt;/div&gt;&lt;div&gt;&lt;br&gt;&lt;/div&gt;" style="rounded=1;whiteSpace=wrap;html=1;" vertex="1" parent="1">
          <mxGeometry x="660" y="190" width="400" height="430" as="geometry" />
        </mxCell>
      </root>
    </mxGraphModel>
  </diagram>
</mxfile>
